# xmcd CD database file
#
# Track frame offsets:
#	150
#	22367
#	42592
#	63817
#	86250
#	106735
#	127137
#	148612
#	169267
#	189112
#	214755
#
# Disc length: 3129 seconds
#
# Revision: 0
# Processed by: cddbd v1.5.2PL0 Copyright (c) Steve Scherf et al.
# Submitted via: CDex 1.51
#
DISCID=990c370b
DTITLE=Mike Sims - Wake Me At Sunset...
DYEAR=1997
DGENRE=Jazz
TTITLE0=You Don't Say
TTITLE1=Wake Me At Sunset
TTITLE2=People Make The World Go Around
TTITLE3=Night People
TTITLE4=Lively Up Yourself
TTITLE5=Goodnight
TTITLE6=Sad But True
TTITLE7=Perfect Crime
TTITLE8=1:00 am
TTITLE9=Mr. Cruel and Unusual
TTITLE10=Europa
EXTD=YEAR: 1997
EXTT0=
EXTT1=
EXTT2=
EXTT3=
EXTT4=
EXTT5=
EXTT6=
EXTT7=
EXTT8=
EXTT9=
EXTT10=
PLAYORDER=
